{"glyphs":{":":{"x_min":0,"x_max":312,"ha":312,"o":"m 56 89 q 56 129 85 157 q 114 185 155 185 q 196 185 226 158 q 255 130 255 89 q 255 48 226 20 q 197 -8 155 -8 q 114 -8 85 20 q 56 48 56 89 z m 56 378 q 56 418 85 446 q 114 474 155 474 q 196 474 226 446 q 255 419 255 378 q 255 337 226 309 q 197 281 155 281 q 114 281 85 309 q 56 337 56 378 z"},"$":{"x_min":0,"x_max":710,"ha":710,"o":"m 364 11 q 413 19 446 44 q 479 69 479 115 q 479 158 456 185 q 434 212 364 241 z m 370 740 l 386 740 q 494 740 559 700 q 624 660 624 584 q 624 544 596 516 q 567 487 526 487 q 485 487 455 512 q 425 536 425 580 q 425 619 448 644 q 470 670 492 672 q 513 675 513 685 q 513 697 476 709 q 438 721 400 721 l 370 720 l 370 486 q 437 459 504 433 q 572 401 611 352 q 650 304 650 239 q 650 116 566 60 q 481 3 364 -9 l 364 -105 l 343 -105 l 343 -11 l 302 -12 q 214 -12 132 30 q 49 71 49 149 q 49 191 80 222 q 110 254 153 254 q 199 254 229 227 q 259 200 259 154 q 259 115 235 93 q 211 71 182 67 q 166 67 166 55 q 166 42 216 24 q 265 7 305 7 l 343 8 l 343 249 q 306 264 266 280 q 226 297 186 318 q 145 339 110 392 q 74 445 74 509 q 74 619 166 680 q 257 740 349 740 l 349 801 l 370 801 z m 349 717 q 307 708 282 682 q 258 656 258 615 q 258 572 282 544 q 307 516 349 495 z"},"?":{"x_min":0,"x_max":618,"ha":618,"o":"m 275 88 q 275 48 246 20 q 218 -7 177 -7 q 137 -7 108 20 q 80 48 80 88 q 80 127 108 154 q 137 182 177 182 q 218 182 246 156 q 275 129 275 88 z m 164 210 l 164 403 l 180 403 q 184 382 190 366 q 196 350 208 338 q 221 325 238 318 q 256 310 275 310 q 319 310 346 352 q 374 394 374 494 q 374 586 346 650 q 319 715 242 715 q 208 715 182 703 q 157 691 157 671 q 157 664 164 659 q 170 654 186 654 q 223 654 246 632 q 270 609 270 573 q 270 533 239 507 q 208 481 165 481 q 127 481 99 509 q 71 537 71 579 q 71 650 138 695 q 205 740 289 740 q 410 740 492 682 q 574 623 574 508 q 574 403 498 343 q 422 283 309 283 q 267 283 237 298 q 207 313 188 339 l 184 339 l 184 210 z"},"<":{"x_min":0,"x_max":833,"ha":833,"o":"m 249 332 l 249 327 l 704 143 l 672 67 l 129 291 l 129 367 l 672 591 l 704 515 z"},"'":{"x_min":0,"x_max":205,"ha":205,"o":"m 178 659 q 178 633 148 550 q 117 467 110 404 l 94 404 q 87 464 56 549 q 26 634 26 659 q 26 690 55 716 q 84 742 102 742 q 119 742 148 717 q 178 692 178 659 z"},"=":{"x_min":0,"x_max":833,"ha":833,"o":"m 701 471 l 701 390 l 132 390 l 132 471 z m 701 269 l 701 188 l 132 188 l 132 269 z"},"a":{"x_min":0,"x_max":575,"ha":575,"o":"m 530 50 q 554 50 564 80 q 573 109 573 150 l 587 150 q 587 62 556 34 q 524 6 499 -2 q 474 -9 435 -9 q 392 -9 358 13 q 325 35 318 72 q 302 31 264 10 q 227 -10 167 -10 q 103 -10 63 25 q 23 60 23 122 q 23 172 48 202 q 73 233 99 240 q 125 247 179 252 q 233 257 258 264 q 284 270 295 278 q 306 285 306 303 l 305 394 q 305 433 295 450 q 285 467 253 467 q 233 467 220 458 q 206 449 206 435 q 206 424 228 408 q 249 391 249 358 q 249 327 222 303 q 194 279 132 279 q 98 279 72 298 q 47 316 47 347 q 47 409 116 446 q 186 483 282 483 q 363 483 431 450 q 499 416 499 346 l 499 117 q 499 85 505 68 q 510 50 530 50 z m 306 79 l 306 270 l 303 271 q 294 259 270 248 q 245 238 236 228 q 226 218 220 190 q 215 161 215 131 q 215 86 222 59 q 229 32 254 32 q 273 32 288 47 q 302 62 306 79 z"},"L":{"x_min":0,"x_max":819,"ha":819,"o":"m 477 23 q 537 23 596 78 q 656 133 702 205 q 747 277 784 357 l 800 357 l 800 0 l 18 0 l 18 16 q 26 16 40 16 q 55 17 84 20 q 114 24 127 37 q 140 50 143 81 l 145 127 l 145 602 l 143 648 q 140 680 130 692 q 119 705 97 708 q 75 711 59 712 q 43 712 30 713 l 30 729 l 514 729 l 514 713 l 448 710 q 418 707 407 695 q 396 683 393 650 l 391 604 l 391 20 z"},"3":{"x_min":0,"x_max":718,"ha":718,"o":"m 462 412 q 565 412 625 361 q 685 310 685 223 q 685 106 562 47 q 440 -12 288 -12 q 185 -12 102 39 q 19 90 19 166 q 19 223 58 261 q 97 299 154 299 q 214 299 252 268 q 289 236 289 185 q 289 148 274 128 q 260 109 236 88 q 213 68 208 62 q 203 56 203 43 q 203 25 231 14 q 259 4 298 4 q 370 4 406 57 q 443 110 443 198 q 443 276 404 336 q 364 397 296 397 q 272 397 251 391 q 232 384 214 377 q 209 377 204 382 q 198 386 198 392 q 198 404 220 408 q 241 412 269 412 q 338 412 376 452 q 414 492 414 565 q 414 629 388 674 q 361 718 301 718 q 266 718 234 704 q 203 691 203 667 q 203 654 211 645 q 219 636 242 632 q 266 628 283 608 q 300 589 300 559 q 300 516 268 493 q 235 470 183 470 q 134 470 103 499 q 72 528 72 574 q 72 619 121 662 q 170 704 234 722 q 298 740 363 740 q 491 740 568 699 q 646 658 646 569 q 646 502 592 464 q 539 427 462 420 z"},";":{"x_min":0,"x_max":312,"ha":312,"o":"m 70 -120 q 124 -115 164 -85 q 203 -55 203 -8 q 203 3 200 8 q 198 13 193 13 q 184 13 169 6 q 154 0 143 0 q 107 0 80 24 q 54 47 54 85 q 54 126 80 154 q 107 183 149 183 q 202 183 236 144 q 269 104 269 49 q 269 -30 212 -82 q 155 -134 72 -134 z m 56 378 q 56 418 85 446 q 114 474 155 474 q 196 474 226 446 q 255 419 255 378 q 255 337 226 309 q 197 281 155 281 q 114 281 85 309 q 56 337 56 378 z"},"J":{"x_min":0,"x_max":656,"ha":656,"o":"m 292 115 l 294 161 l 294 604 l 292 650 q 289 683 278 694 q 268 706 248 708 q 229 711 216 712 q 202 712 192 713 l 192 729 l 644 729 l 644 713 l 597 709 q 567 705 556 693 q 545 681 542 648 l 540 602 l 540 255 q 540 145 434 66 q 329 -12 201 -12 q 107 -12 48 32 q -12 76 -12 155 q -12 205 25 241 q 62 277 113 277 q 173 277 208 243 q 243 209 243 154 q 243 106 220 77 q 194 50 169 23 q 169 13 183 10 q 197 6 218 6 q 261 6 276 40 q 292 73 292 115 z"},"V":{"x_min":0,"x_max":745,"ha":745,"o":"m 792 713 q 783 712 771 712 q 759 711 734 707 q 708 703 690 690 q 672 677 658 644 l 628 567 l 427 -4 l 324 -4 l 120 569 l 89 647 q 74 679 60 692 q 46 706 20 709 l -21 713 l -21 729 l 442 729 l 442 713 l 398 709 q 376 705 362 700 q 349 695 349 669 q 349 651 364 607 q 378 563 407 484 q 436 406 494 253 q 529 347 565 448 q 601 548 614 592 q 627 637 627 659 q 627 684 615 694 q 603 704 587 708 q 571 711 556 712 q 540 712 527 713 l 527 729 l 792 729 z"},"\"":{"x_min":0,"x_max":375,"ha":375,"o":"m 171 659 q 171 632 142 550 q 114 467 107 404 l 91 404 q 84 463 56 549 q 27 635 27 659 q 27 691 54 716 q 81 742 99 742 q 115 742 143 718 q 171 693 171 659 z m 347 659 q 347 632 318 550 q 290 467 283 404 l 267 404 q 260 463 232 549 q 203 635 203 659 q 203 691 230 716 q 257 742 275 742 q 291 742 319 718 q 347 693 347 659 z"},"7":{"x_min":0,"x_max":626,"ha":626,"o":"m 705 729 l 707 722 q 662 677 609 622 q 556 566 490 486 q 424 406 378 304 q 332 203 332 102 q 332 85 334 54 q 337 23 337 18 q 337 -50 295 -93 q 253 -136 194 -136 q 132 -136 96 -95 q 60 -54 60 8 q 60 66 102 129 q 143 192 200 248 q 258 304 312 352 q 366 399 414 440 q 461 482 496 515 l 494 520 q 482 520 437 518 q 392 517 376 517 l 152 517 q 102 517 84 506 q 67 496 50 461 l 38 431 l 26 434 l 131 797 l 143 797 l 140 771 q 140 742 156 734 q 171 727 213 727 l 389 727 q 484 727 566 728 q 649 728 705 729 z"},"S":{"x_min":0,"x_max":710,"ha":710,"o":"m 671 214 q 671 115 588 52 q 504 -12 406 -12 q 320 -12 236 42 q 152 97 139 97 q 106 97 98 72 q 90 47 83 -12 l 66 -12 l 66 346 l 83 346 q 89 325 104 277 q 118 229 158 162 q 197 96 262 52 q 326 8 411 8 q 460 8 491 34 q 522 60 522 96 q 522 139 499 164 q 476 189 416 212 q 356 236 289 263 q 222 290 147 336 q 72 381 72 506 q 72 604 151 672 q 230 740 333 740 q 390 740 444 713 l 548 655 q 577 655 586 680 q 595 704 595 740 l 614 740 l 614 475 l 596 475 q 591 492 576 533 q 560 574 516 625 q 471 676 428 698 q 384 721 323 721 q 282 721 247 697 q 212 673 212 637 q 212 599 238 574 q 265 548 300 533 q 334 518 395 495 q 456 472 522 442 q 587 411 629 352 q 671 294 671 214 z"},"}":{"x_min":0,"x_max":380,"ha":380,"o":"m 349 258 q 266 258 242 236 q 217 213 217 170 q 217 138 245 76 q 273 14 273 -35 q 273 -137 192 -166 q 111 -196 10 -196 l 10 -178 q 79 -178 114 -148 q 150 -118 150 -36 q 150 -16 140 35 q 130 86 130 106 q 130 185 174 221 q 218 257 276 264 l 276 271 q 217 277 174 312 q 130 348 130 428 q 130 452 140 504 q 150 556 150 570 q 150 653 115 682 q 80 712 10 712 l 10 730 q 113 730 193 702 q 273 673 273 569 q 273 525 245 461 q 217 397 217 366 q 217 321 241 298 q 265 276 349 276 z"},"Z":{"x_min":0,"x_max":834,"ha":834,"o":"m 310 20 q 349 21 380 22 q 412 22 454 23 q 526 23 618 132 q 709 241 761 347 l 777 347 l 777 0 l 10 0 l 10 11 l 499 705 l 499 710 l 384 707 q 308 707 218 604 q 127 501 73 395 l 57 395 l 57 729 l 800 729 l 800 718 l 310 25 z"},"x":{"x_min":0,"x_max":541,"ha":541,"o":"m 201 197 l 82 398 q 61 432 49 443 q 37 454 16 457 l -12 459 l -12 474 l 325 474 l 325 459 l 298 458 q 284 457 278 454 q 272 451 272 440 q 272 435 274 428 q 275 422 284 406 l 334 319 l 398 401 q 415 426 415 439 q 415 458 390 458 l 367 459 l 367 474 l 533 474 l 533 459 l 522 459 q 515 459 500 457 q 486 455 473 448 q 460 442 431 409 l 344 303 l 479 77 q 501 41 512 31 q 524 21 545 18 l 566 16 l 566 0 l 235 0 l 235 16 l 262 17 q 287 20 287 37 q 287 47 276 69 l 211 181 l 128 74 q 111 49 111 37 q 111 20 136 17 l 163 16 l 163 0 l -15 0 l -15 16 l 16 17 q 43 21 58 31 q 73 41 90 61 q 108 81 140 121 q 172 161 201 197 z"},")":{"x_min":0,"x_max":468,"ha":468,"o":"m 394 265 q 394 68 291 -58 q 188 -183 16 -199 l 16 -183 q 117 -171 160 -60 q 203 52 203 265 q 203 480 160 590 q 117 701 16 713 l 16 729 q 187 711 290 588 q 394 465 394 265 z"},"&":{"x_min":0,"x_max":980,"ha":980,"o":"m 504 108 q 452 167 393 254 q 334 342 290 431 q 271 423 258 395 q 246 367 246 331 q 246 225 304 157 q 363 89 437 89 q 467 89 481 95 q 495 101 504 108 z m 583 616 q 583 664 564 692 q 545 720 510 720 q 489 720 474 706 q 459 692 459 668 q 459 637 476 595 q 492 553 517 511 q 544 523 564 546 q 583 570 583 616 z m 677 272 q 684 280 702 302 q 721 324 737 352 q 753 380 757 394 q 761 407 761 415 q 761 433 748 439 q 734 445 711 447 l 664 450 l 664 466 l 918 466 l 918 450 q 907 449 894 448 q 882 448 850 441 q 819 434 788 388 q 756 341 733 312 q 710 282 689 257 q 754 177 798 146 q 841 114 875 114 q 904 114 927 136 q 950 157 955 220 l 971 220 q 971 111 902 50 q 832 -12 731 -12 q 667 -12 616 13 q 566 38 516 95 q 452 31 399 10 q 346 -12 284 -12 q 172 -12 106 53 q 40 118 40 210 q 40 298 100 362 q 159 425 283 446 q 265 482 257 506 q 249 529 249 572 q 249 634 310 687 q 371 740 493 740 q 569 740 610 707 q 650 674 650 622 q 650 580 618 548 q 586 516 524 498 q 560 438 596 384 q 632 329 677 272 z"},"_":{"x_min":0,"x_max":500,"ha":500,"o":"m 500 -83 l 500 -164 l 0 -164 l 0 -83 z"},"v":{"x_min":0,"x_max":505,"ha":505,"o":"m 312 458 q 306 458 300 458 q 294 457 278 454 q 263 452 263 431 q 263 420 265 412 q 267 404 272 392 l 348 190 l 419 374 q 431 409 431 429 q 431 443 424 448 q 417 453 402 456 l 370 458 l 370 474 l 537 474 l 537 458 l 500 454 q 484 451 471 436 q 458 420 444 384 q 430 349 390 244 q 349 139 328 84 q 307 29 295 -4 l 224 -4 q 207 39 182 104 q 157 170 119 268 q 81 365 67 399 q 53 433 46 442 q 40 452 27 454 q 14 457 3 458 q -8 458 -13 458 l -13 474 l 312 474 z"},"O":{"x_min":0,"x_max":906,"ha":906,"o":"m 858 364 q 858 204 737 96 q 616 -12 451 -12 q 279 -12 164 94 q 48 201 48 364 q 48 532 166 636 q 284 740 451 740 q 618 740 738 634 q 858 529 858 364 z m 554 637 q 524 721 451 721 q 414 721 387 697 q 360 673 346 628 q 331 582 324 510 q 318 439 318 364 q 318 261 326 196 q 334 131 356 69 q 378 7 451 7 q 488 7 515 31 q 542 55 556 100 q 571 146 578 218 q 584 289 584 364 q 584 453 578 518 q 572 584 554 637 z"},"(":{"x_min":0,"x_max":468,"ha":468,"o":"m 453 -183 l 453 -199 q 282 -183 178 -57 q 75 69 75 265 q 75 465 178 588 q 282 711 453 729 l 453 713 q 353 701 310 590 q 266 478 266 265 q 266 53 309 -59 q 352 -171 453 -183 z"},"C":{"x_min":0,"x_max":793,"ha":793,"o":"m 443 -12 q 271 -12 160 94 q 50 201 50 364 q 50 531 160 636 q 269 740 442 740 q 516 740 570 715 l 676 655 q 706 655 716 676 q 726 696 730 734 l 750 734 l 750 418 l 733 418 q 689 540 670 583 q 652 626 609 666 q 566 706 499 706 q 412 706 370 608 q 328 510 328 379 q 328 238 378 134 q 429 31 527 31 q 618 31 673 97 q 728 163 746 269 l 763 266 q 749 146 672 67 q 595 -12 443 -12 z"},"W":{"x_min":0,"x_max":1186,"ha":1186,"o":"m 583 541 l 542 647 q 528 676 518 690 q 509 704 478 709 l 447 713 l 447 729 l 887 729 l 887 713 l 873 713 q 866 713 847 710 q 828 706 815 701 q 802 696 802 671 q 802 648 816 607 q 829 566 847 516 q 865 465 894 385 q 923 305 936 269 q 949 303 968 351 q 986 399 1018 486 q 1051 574 1061 606 q 1071 639 1071 663 q 1071 686 1059 696 q 1047 706 1030 708 q 1013 711 998 712 q 983 712 970 713 l 970 729 l 1227 729 l 1227 713 l 1183 708 q 1151 703 1133 690 q 1115 677 1101 644 l 1071 567 l 857 -4 l 777 -4 l 595 512 l 404 -4 l 324 -4 l 120 569 l 89 647 q 74 679 62 692 q 49 706 24 709 l -11 713 l -11 729 l 421 729 l 421 713 l 389 710 q 366 707 356 700 q 347 694 347 676 q 347 654 364 606 q 380 557 405 488 q 430 419 450 366 q 470 313 483 278 z"},"A":{"x_min":0,"x_max":748,"ha":748,"o":"m 341 249 l 253 495 l 168 249 z m 161 228 l 130 124 q 120 88 120 67 q 120 44 132 35 q 143 26 161 22 q 179 19 196 18 q 213 17 229 16 l 229 0 l -53 0 l -53 16 l 6 20 q 39 24 56 36 q 73 49 82 68 q 90 87 100 113 q 111 139 118 160 l 309 732 l 419 732 l 630 160 l 661 82 q 675 51 690 38 q 704 24 730 20 l 771 16 l 771 0 l 296 0 l 296 16 q 308 16 318 16 q 327 17 352 21 q 377 25 388 32 q 399 38 399 59 q 399 81 385 122 l 349 228 z"},"f":{"x_min":0,"x_max":360,"ha":360,"o":"m 329 620 q 329 646 349 667 q 369 688 369 698 q 369 710 360 716 q 352 722 335 722 q 300 722 284 682 q 269 641 269 579 l 267 474 l 381 474 l 364 436 l 267 436 l 267 125 l 268 79 q 268 43 274 32 q 280 21 309 17 l 345 16 l 345 0 l 9 0 l 9 16 l 33 17 q 62 20 68 31 q 74 42 74 79 l 75 125 l 75 436 l 2 436 l 18 474 l 75 474 q 75 494 76 516 q 78 539 78 549 q 78 620 160 680 q 241 739 344 739 q 412 739 464 710 q 515 682 515 626 q 515 590 486 566 q 456 541 420 541 q 384 541 356 562 q 329 584 329 620 z"},"Q":{"x_min":0,"x_max":906,"ha":906,"o":"m 368 55 q 400 8 451 8 q 471 8 491 17 q 482 57 466 83 q 449 109 420 109 q 397 109 384 94 q 372 80 368 55 z m 673 56 q 690 47 714 40 q 739 33 762 33 q 818 33 848 61 q 878 89 878 147 l 892 147 l 892 74 q 892 -29 838 -95 q 783 -161 694 -161 q 620 -161 571 -118 q 522 -74 498 -5 q 487 -7 474 -9 q 462 -11 451 -11 q 279 -11 164 96 q 48 202 48 364 q 48 531 166 636 q 285 740 451 740 q 617 740 738 634 q 858 527 858 364 q 858 268 807 187 q 756 106 673 56 z m 584 364 q 584 453 578 518 q 572 584 548 652 q 524 721 451 721 q 414 721 387 697 q 360 673 346 628 q 331 582 324 510 q 318 439 318 364 q 318 282 326 198 q 335 114 355 72 l 359 72 q 364 103 388 127 q 411 151 447 151 q 486 151 515 135 q 544 115 555 108 q 571 157 578 224 q 584 290 584 364 z"},"w":{"x_min":0,"x_max":811,"ha":811,"o":"m 406 348 l 385 406 q 377 426 370 440 q 363 453 348 456 l 326 458 l 326 474 l 632 474 l 632 458 l 617 458 q 609 458 595 455 q 581 452 581 431 q 581 424 582 417 q 583 410 592 380 q 602 349 623 289 q 644 229 657 194 l 726 374 q 739 413 739 430 q 739 445 732 449 q 725 453 713 455 q 701 457 692 458 q 684 458 676 458 l 676 474 l 843 474 l 843 458 l 807 454 q 777 449 751 385 l 603 -4 l 531 -4 l 415 324 l 286 -4 l 215 -4 q 200 39 184 84 q 168 129 126 246 q 85 364 72 399 q 58 434 52 443 q 46 452 34 454 q 22 457 10 458 q -1 458 -11 458 l -11 474 l 304 474 l 304 458 l 297 458 q 293 458 280 455 q 266 452 266 431 q 266 424 267 417 q 268 410 276 386 q 284 361 303 305 q 322 249 343 192 z"},"-":{"x_min":0,"x_max":281,"ha":281,"o":"m 7 320 l 274 320 l 274 165 l 7 165 z"},"E":{"x_min":0,"x_max":868,"ha":868,"o":"m 391 20 q 433 21 477 22 q 521 22 570 28 q 619 35 691 128 q 763 220 797 318 l 813 318 l 813 0 l 27 0 l 27 16 q 40 16 57 18 q 74 19 96 22 q 117 24 128 36 q 140 49 143 81 l 145 127 l 145 601 l 143 647 q 140 679 128 692 q 116 705 94 708 q 73 711 56 712 q 38 712 24 713 l 24 729 l 793 729 l 793 433 l 777 433 q 726 545 653 622 q 580 698 530 703 q 481 708 447 709 q 413 710 402 710 l 393 710 l 391 382 l 433 384 q 491 390 520 438 q 550 487 550 553 l 569 553 l 569 189 l 550 189 q 550 256 520 306 q 491 356 433 362 l 391 364 z"},"s":{"x_min":0,"x_max":484,"ha":484,"o":"m 44 207 l 57 207 q 83 126 109 88 q 135 50 166 31 q 196 12 240 12 q 265 12 283 26 q 301 39 301 63 q 301 94 287 109 q 273 124 243 142 q 213 159 174 180 q 134 202 108 222 q 81 243 66 269 q 52 295 52 329 q 52 403 108 444 q 164 484 245 484 q 283 484 317 470 q 350 453 384 437 q 398 437 408 454 q 418 471 418 494 l 432 494 l 432 293 l 419 293 q 411 317 399 346 q 387 375 364 404 q 342 434 317 450 q 292 466 253 466 q 225 466 208 452 q 190 439 190 419 q 190 396 202 383 q 215 370 239 356 q 263 341 304 318 q 346 296 379 274 q 412 252 434 220 q 456 187 456 145 q 456 68 398 29 q 339 -10 256 -10 q 213 -10 172 8 q 132 28 93 49 q 80 49 70 28 q 60 7 58 -17 l 44 -17 z"},">":{"x_min":0,"x_max":833,"ha":833,"o":"m 704 291 l 161 65 l 129 141 l 584 327 l 584 332 l 129 517 l 161 593 l 704 367 z"},"l":{"x_min":0,"x_max":337,"ha":337,"o":"m 332 0 l 8 0 l 8 16 l 32 17 q 61 20 67 31 q 73 42 73 79 l 74 125 l 74 619 l 73 660 q 71 684 67 696 q 63 708 31 711 l -3 713 l -3 729 l 266 729 l 266 125 l 267 79 q 267 43 273 32 q 279 20 308 17 l 332 16 z"},"8":{"x_min":0,"x_max":682,"ha":682,"o":"m 159 328 q 113 361 90 406 q 67 451 67 509 q 67 577 106 628 q 144 679 208 710 q 272 740 359 740 q 466 740 538 688 q 610 635 610 551 q 610 510 586 481 q 562 452 517 440 l 517 436 q 571 406 608 355 q 645 304 645 241 q 645 126 554 57 q 464 -12 333 -12 q 279 -12 230 1 q 181 14 110 60 q 40 106 40 201 q 40 253 74 286 q 107 318 159 323 z m 500 445 q 527 466 542 498 q 556 529 556 568 q 556 639 504 680 q 453 720 367 720 q 317 720 284 692 q 251 664 251 619 q 251 575 281 546 q 311 517 340 504 q 370 492 425 474 q 480 455 500 445 z m 174 318 q 145 302 128 268 q 111 234 111 184 q 111 109 173 58 q 235 7 331 7 q 387 7 430 35 q 472 63 472 114 q 472 160 449 190 q 426 219 344 252 q 263 284 174 318 z"},"\\":{"x_min":0,"x_max":361,"ha":361,"o":"m 395 -101 l 350 -116 l -19 754 l 26 770 z"},"e":{"x_min":0,"x_max":530,"ha":530,"o":"m 521 150 q 493 75 431 32 q 369 -10 285 -10 q 167 -10 91 56 q 15 121 15 237 q 15 345 94 414 q 172 484 282 484 q 397 484 458 419 q 519 354 519 260 l 212 260 q 212 224 218 186 q 223 149 238 114 q 254 79 282 58 q 311 36 354 36 q 415 36 450 70 q 486 105 505 157 z m 345 280 q 344 291 344 306 q 343 321 343 344 q 343 405 328 436 q 313 468 276 468 q 244 468 232 438 q 219 407 214 344 l 212 280 z"},"b":{"x_min":0,"x_max":616,"ha":616,"o":"m 601 239 q 601 126 525 58 q 449 -10 332 -10 q 255 -10 212 22 q 169 54 141 86 l 135 86 q 121 72 106 46 q 90 21 76 -3 l 64 -3 q 65 37 66 72 q 66 108 67 158 l 67 619 l 66 660 q 66 687 58 698 q 49 708 21 711 l -17 713 l -17 729 l 259 729 l 259 503 l 257 424 q 268 444 292 464 q 317 484 385 484 q 480 484 540 416 q 601 349 601 239 z m 399 238 q 399 252 397 292 q 395 331 395 340 q 395 393 379 426 q 363 458 327 458 q 296 458 282 440 q 268 423 264 400 q 260 378 259 336 q 258 293 258 251 l 258 184 q 258 157 261 128 q 261 75 278 40 q 294 6 328 6 q 361 6 378 42 q 395 78 395 130 q 395 150 396 178 q 397 205 399 238 z"},"%":{"x_min":0,"x_max":983,"ha":983,"o":"m 951 236 q 951 136 874 62 q 797 -12 677 -12 q 641 -12 608 2 q 576 17 552 42 q 527 66 514 100 q 500 134 500 173 q 500 270 576 346 q 653 421 774 421 q 812 421 842 407 q 872 393 896 369 q 921 345 936 312 q 951 278 951 236 z m 347 683 q 347 703 340 712 q 334 721 316 721 q 297 721 280 696 q 264 670 238 612 q 213 555 186 476 q 159 397 159 362 q 159 343 166 334 q 172 325 190 325 q 213 325 229 354 q 245 383 268 434 q 292 485 320 568 q 347 652 347 683 z m 716 723 l 731 748 q 736 754 742 754 q 748 754 752 748 q 757 743 753 736 l 242 -36 l 223 -23 l 698 695 q 664 675 634 666 q 605 658 561 658 q 531 658 496 666 q 462 673 431 686 q 458 654 468 620 q 479 585 479 556 q 479 455 402 381 q 325 307 205 307 q 169 307 136 322 q 104 336 81 359 q 58 382 43 418 q 28 453 28 489 q 28 587 104 664 q 179 740 302 740 q 327 740 346 736 q 365 731 402 716 q 439 702 484 690 q 528 678 565 678 q 618 678 652 688 q 686 699 716 723 z m 819 364 q 819 384 812 394 q 806 403 788 403 q 772 403 758 386 q 743 368 715 304 q 687 241 659 159 q 631 77 631 43 q 631 24 638 15 q 644 6 662 6 q 685 6 701 35 q 717 64 740 115 q 764 166 792 250 q 819 333 819 364 z"},"m":{"x_min":0,"x_max":946,"ha":946,"o":"m 942 0 l 641 0 l 641 16 q 676 16 682 27 q 689 38 689 79 l 690 125 l 690 327 l 689 368 q 689 411 678 430 q 668 449 641 449 q 623 449 602 432 q 582 416 575 368 l 575 125 l 576 79 q 576 47 580 33 q 583 19 618 16 l 618 0 l 334 0 l 334 16 q 368 16 375 27 q 382 38 382 79 l 383 125 l 383 327 l 382 368 q 382 411 372 430 q 361 449 334 449 q 300 449 288 427 q 275 405 268 382 l 268 125 l 269 79 q 269 47 272 33 q 276 19 311 16 l 311 0 l 12 0 l 12 16 l 34 17 q 63 20 69 31 q 75 42 75 79 l 76 125 l 76 364 l 75 405 q 73 429 69 441 q 65 453 33 456 l 10 458 l 10 474 l 264 474 l 264 399 q 273 427 300 456 q 326 484 407 484 q 463 484 504 460 q 546 437 566 390 q 571 408 592 446 q 614 484 714 484 q 782 484 832 446 q 882 408 882 348 l 882 125 l 883 79 q 883 41 888 31 q 894 21 924 17 l 942 16 z"},"#":{"x_min":0,"x_max":769,"ha":769,"o":"m 409 724 l 433 718 l 366 527 l 527 527 l 596 724 l 620 718 l 553 527 l 718 527 l 673 408 l 511 408 l 472 301 l 639 301 l 594 183 l 430 183 l 360 -14 l 336 -8 l 404 183 l 243 183 l 173 -14 l 149 -8 l 217 183 l 51 183 l 96 301 l 259 301 l 297 408 l 130 408 l 174 527 l 340 527 z m 321 408 l 281 301 l 448 301 l 488 408 z"},",":{"x_min":0,"x_max":272,"ha":272,"o":"m 50 -120 q 103 -115 143 -84 q 183 -53 183 -8 q 183 3 180 8 q 178 13 173 13 q 166 13 150 6 q 134 -1 121 -1 q 88 -1 61 24 q 34 49 34 85 q 34 126 60 154 q 87 183 129 183 q 182 183 216 144 q 249 104 249 49 q 249 -30 192 -82 q 135 -134 52 -134 z"},"n":{"x_min":0,"x_max":653,"ha":653,"o":"m 396 329 l 395 370 q 395 448 340 448 q 305 448 290 426 q 276 404 267 381 l 267 125 l 268 79 q 268 38 276 27 q 283 16 320 16 l 320 0 l 9 0 l 9 16 l 33 17 q 62 20 68 31 q 74 42 74 79 l 75 125 l 75 364 l 74 405 q 72 429 68 441 q 64 453 32 456 l 9 458 l 9 474 l 263 474 l 263 399 q 274 427 302 456 q 331 484 413 484 q 484 484 536 444 q 588 404 588 350 l 588 125 l 589 79 q 589 43 595 32 q 601 20 630 17 l 652 16 l 652 0 l 343 0 l 343 16 q 379 16 387 28 q 395 39 395 79 l 396 125 z"},"h":{"x_min":0,"x_max":649,"ha":649,"o":"m 259 400 q 278 440 312 462 q 346 484 409 484 q 478 484 531 446 q 584 409 584 350 l 584 125 l 585 79 q 585 43 591 32 q 597 20 626 17 l 648 16 l 648 0 l 339 0 l 339 16 l 352 17 q 379 17 385 29 q 391 41 391 79 l 392 125 l 392 329 l 391 370 q 391 412 377 430 q 363 448 335 448 q 301 448 286 426 q 272 404 263 381 l 263 125 l 264 79 q 264 40 270 28 q 275 17 303 17 l 316 16 l 316 0 l 6 0 l 6 16 l 29 17 q 58 20 64 31 q 70 42 70 79 l 71 125 l 71 619 l 70 660 q 70 687 62 698 q 53 708 25 711 l -13 713 l -13 729 l 263 729 l 263 492 q 263 459 262 436 q 261 414 259 400 z"},"z":{"x_min":0,"x_max":542,"ha":542,"o":"m 298 20 q 346 20 404 89 q 462 158 495 226 l 508 226 l 508 0 l 1 0 l 1 9 l 303 453 l 249 455 q 200 455 142 390 q 83 325 49 257 l 36 257 l 36 474 l 522 474 l 522 465 l 221 21 z"},"B":{"x_min":0,"x_max":881,"ha":881,"o":"m 478 396 q 520 404 534 445 q 548 486 548 549 q 548 600 530 648 q 511 695 484 702 q 456 709 432 710 q 409 711 391 712 l 391 389 q 410 389 430 390 q 449 390 478 396 z m 514 -1 l 25 0 l 25 16 l 56 16 q 77 19 97 22 q 117 24 128 36 q 140 49 143 81 l 145 127 l 145 601 l 143 647 q 140 679 128 692 q 116 705 94 708 q 73 711 56 712 q 38 712 24 713 l 24 729 l 486 730 q 580 730 633 723 q 686 716 722 692 q 757 668 777 632 q 797 597 797 548 q 797 475 754 443 q 712 411 670 400 q 627 390 565 390 l 565 382 q 638 382 674 376 q 711 371 748 356 q 784 341 812 300 q 840 258 840 193 q 840 130 811 88 q 782 46 737 26 q 692 5 627 2 q 562 -1 514 -1 z m 515 28 q 548 36 562 91 q 577 146 577 206 q 577 260 554 312 q 532 363 500 367 q 468 371 450 372 q 433 372 424 372 l 391 372 l 391 18 l 403 18 q 439 18 463 20 q 487 21 515 28 z"},"K":{"x_min":0,"x_max":932,"ha":932,"o":"m 418 340 l 391 308 l 391 125 l 393 79 q 396 46 406 34 q 417 23 448 19 l 484 16 l 484 0 l 38 0 l 38 16 l 88 20 q 117 24 128 37 q 140 50 143 81 l 145 127 l 145 602 l 143 648 q 140 680 130 692 q 119 705 88 709 l 36 713 l 36 729 l 487 729 l 487 713 l 448 710 q 417 707 406 696 q 396 684 393 650 l 391 604 l 391 334 q 420 368 472 428 q 524 488 578 552 q 633 615 652 640 q 670 666 670 682 q 670 696 660 702 q 649 708 631 710 l 584 713 l 584 729 l 838 729 l 838 713 q 825 712 811 712 q 797 711 777 707 q 757 703 736 691 q 714 679 685 647 l 585 532 l 858 110 q 896 53 913 39 q 930 25 950 22 q 970 18 980 18 q 991 17 999 16 l 999 0 l 518 0 l 518 16 l 560 18 q 581 20 591 24 q 601 28 601 43 q 601 52 596 66 q 591 79 573 106 q 555 134 532 168 q 510 203 472 258 q 435 314 418 340 z"},"R":{"x_min":0,"x_max":912,"ha":912,"o":"m 391 364 l 391 130 l 393 84 q 396 52 409 38 q 422 24 453 20 l 504 16 l 504 0 l 24 0 l 24 16 l 55 16 q 77 19 97 22 q 117 24 128 36 q 140 49 143 81 l 145 127 l 145 601 l 143 647 q 140 679 128 692 q 116 705 94 708 q 72 711 56 712 q 40 712 26 713 l 26 729 l 473 730 q 566 730 624 722 q 682 714 718 690 q 755 666 776 630 q 798 595 798 548 q 798 513 786 478 q 773 443 747 418 q 721 393 682 379 q 644 365 560 365 l 560 358 q 611 347 646 337 q 680 327 708 308 q 736 289 758 252 q 781 214 795 170 q 809 125 820 106 q 831 88 851 88 q 877 88 886 122 q 894 155 894 198 l 910 198 q 910 149 904 120 q 898 91 874 60 q 850 28 806 8 q 761 -11 709 -11 q 628 -11 580 36 q 531 82 520 158 q 508 233 501 285 q 490 343 472 352 q 454 362 433 363 q 412 364 391 364 z m 471 385 q 509 391 528 440 q 548 489 548 549 q 548 598 528 646 q 508 693 480 701 q 452 709 430 710 q 408 711 391 712 l 391 382 l 425 382 q 453 382 471 385 z"},"T":{"x_min":0,"x_max":802,"ha":802,"o":"m 6 729 l 796 729 l 796 408 l 779 408 q 752 469 714 538 q 677 606 636 657 q 595 708 564 708 l 524 710 l 524 127 l 526 81 q 529 49 540 36 q 550 24 572 22 q 594 19 612 18 q 630 17 644 16 l 644 0 l 155 0 l 155 16 l 221 19 q 251 22 262 34 q 273 46 276 79 l 278 125 l 278 710 l 239 708 q 207 708 168 660 q 129 613 90 540 q 50 468 23 408 l 6 408 z"},"P":{"x_min":0,"x_max":813,"ha":813,"o":"m 513 0 l 25 0 l 25 16 l 56 16 q 77 19 97 22 q 117 24 128 36 q 140 49 143 81 l 145 127 l 145 601 l 143 647 q 140 679 128 692 q 116 705 94 708 q 73 711 56 712 q 38 712 24 713 l 24 729 l 491 730 q 654 730 708 694 q 761 658 782 616 q 803 575 803 527 q 803 482 789 441 q 775 400 746 374 q 717 347 674 334 q 631 321 563 321 q 498 321 458 320 q 418 320 391 319 l 391 127 l 393 81 q 396 49 408 36 q 419 24 441 21 q 463 18 484 18 q 505 17 513 16 z m 553 529 q 553 586 538 640 q 523 694 492 702 q 462 711 434 712 q 405 712 391 712 l 391 338 q 411 339 432 340 q 453 341 488 348 q 522 354 538 408 q 553 461 553 529 z"},"|":{"x_min":0,"x_max":445,"ha":445,"o":"m 183 754 l 262 754 l 262 -246 l 183 -246 z"},"t":{"x_min":0,"x_max":403,"ha":403,"o":"m 66 436 l -2 436 l -2 463 q 32 472 69 496 q 106 521 140 554 q 173 586 196 617 q 218 648 230 673 l 258 673 l 258 474 l 389 474 l 375 436 l 258 436 l 258 164 l 260 113 q 260 70 279 48 q 298 26 327 26 q 366 26 384 58 q 402 91 402 131 l 416 131 q 416 75 383 32 q 350 -10 241 -10 q 172 -10 119 26 q 66 62 66 127 z"},"M":{"x_min":0,"x_max":1081,"ha":1081,"o":"m 162 605 l 162 138 l 164 90 q 167 58 180 42 q 194 25 225 21 l 295 16 l 295 0 l 7 0 l 7 16 q 22 17 40 18 q 57 18 82 22 q 107 25 122 42 q 136 59 139 90 l 141 138 l 141 602 l 139 648 q 132 672 118 688 q 103 704 82 707 q 62 710 42 711 q 22 712 12 713 l 12 729 l 382 729 l 550 295 l 701 729 l 1061 729 l 1061 713 l 1038 713 q 1028 713 996 709 q 965 705 953 692 q 941 679 938 647 l 936 601 l 936 127 l 938 81 q 941 49 952 36 q 962 24 993 20 l 1043 16 l 1043 0 l 587 0 l 587 16 l 633 19 q 665 23 675 34 q 685 45 688 79 l 690 125 l 690 496 q 690 527 692 570 q 695 612 698 649 l 692 649 l 651 520 l 474 0 l 412 0 l 168 605 z"},"g":{"x_min":0,"x_max":540,"ha":540,"o":"m 118 -81 q 90 -85 78 -98 q 65 -110 65 -134 q 65 -174 124 -194 q 182 -215 258 -215 q 353 -215 411 -194 q 469 -173 469 -127 q 469 -99 443 -90 q 417 -81 369 -81 z m 291 314 l 288 387 q 288 424 278 446 q 268 468 243 468 q 220 468 210 446 q 199 423 199 387 l 196 314 l 199 241 q 199 206 210 184 q 221 161 244 161 q 267 161 278 183 q 288 205 288 241 z m 392 429 q 403 454 426 469 q 449 484 482 484 q 517 484 538 466 q 559 448 559 417 q 559 393 543 377 q 527 361 501 361 q 477 361 460 374 q 444 388 444 414 q 444 428 454 440 q 463 453 463 459 q 463 463 455 463 q 442 463 426 452 q 410 442 400 421 q 418 402 428 374 q 438 345 438 314 q 438 238 380 192 q 322 145 244 145 q 196 145 150 164 q 129 166 110 157 q 91 148 91 128 q 91 114 106 107 q 120 99 138 99 l 351 99 q 433 99 482 52 q 531 5 531 -66 q 531 -153 448 -194 q 366 -235 255 -235 q 164 -235 96 -213 q 27 -191 27 -136 q 27 -110 48 -94 q 68 -79 99 -73 q 59 -50 36 -22 q 14 7 14 48 q 14 98 47 133 q 80 168 126 175 q 89 199 68 234 q 48 268 48 313 q 48 390 106 437 q 163 484 244 484 q 335 484 392 429 z"},"j":{"x_min":0,"x_max":330,"ha":330,"o":"m 270 641 q 270 601 242 574 q 213 546 172 546 q 132 546 104 574 q 75 601 75 641 q 75 680 104 708 q 132 735 172 735 q 213 735 242 708 q 270 682 270 641 z m 271 54 q 271 32 270 8 q 268 -17 268 -21 q 268 -96 190 -164 q 111 -231 12 -231 q -58 -231 -104 -206 q -150 -181 -150 -124 q -150 -88 -122 -64 q -95 -39 -59 -39 q -24 -39 2 -61 q 29 -83 29 -118 q 29 -145 10 -166 q -8 -186 -8 -196 q -8 -204 0 -208 q 7 -213 22 -213 q 53 -213 66 -177 q 78 -141 78 -82 l 79 23 l 79 364 l 78 405 q 76 429 72 441 q 68 453 36 456 l -1 458 l -1 474 l 271 474 z"},"i":{"x_min":0,"x_max":340,"ha":340,"o":"m 332 0 l 8 0 l 8 16 l 32 17 q 61 20 67 31 q 73 42 73 79 l 74 125 l 74 364 l 73 405 q 71 429 67 441 q 63 453 31 456 l 4 458 l 4 474 l 266 474 l 266 125 l 267 79 q 267 43 273 32 q 279 20 308 17 l 332 16 z m 72 641 q 72 680 100 708 q 129 735 169 735 q 210 735 238 708 q 267 682 267 641 q 267 601 238 574 q 210 546 169 546 q 129 546 100 574 q 72 601 72 641 z"},"y":{"x_min":0,"x_max":503,"ha":503,"o":"m 61 406 q 49 431 41 442 q 33 452 20 455 l -19 458 l -19 474 l 308 474 l 308 458 l 293 458 q 285 458 272 456 q 260 453 260 435 q 260 427 264 414 q 268 402 272 390 l 350 204 q 360 228 382 282 q 404 337 417 375 q 430 413 430 430 q 430 443 426 448 q 421 453 401 456 l 369 458 l 369 474 l 536 474 l 536 458 q 530 458 524 458 q 517 457 500 454 q 482 451 470 436 q 458 421 426 338 q 393 255 356 162 q 318 69 272 -31 q 225 -131 184 -181 q 144 -231 76 -231 q 36 -231 2 -204 q -31 -177 -31 -134 q -31 -94 -4 -66 q 23 -38 65 -38 q 108 -38 132 -63 q 156 -88 156 -122 q 156 -156 137 -177 q 118 -198 118 -202 q 127 -201 137 -200 q 159 -190 180 -162 q 200 -134 216 -104 q 232 -74 250 -33 q 228 19 196 96 q 163 172 124 264 q 84 356 61 406 z"},"@":{"x_min":0,"x_max":986,"ha":986,"o":"m 601 313 q 616 356 616 377 q 616 391 610 398 q 603 405 589 405 q 573 405 552 380 q 531 356 511 317 q 491 278 478 252 q 465 226 462 218 l 419 120 q 405 86 398 65 q 391 44 391 33 q 391 25 395 21 q 399 17 406 17 q 431 17 464 48 q 497 80 517 124 l 561 218 q 572 243 584 269 q 595 295 601 313 z m 918 328 q 918 438 848 520 q 778 601 595 601 q 418 601 287 465 q 156 329 156 149 q 156 -13 252 -101 q 347 -189 487 -189 q 569 -189 646 -164 q 724 -139 836 -58 l 844 -70 q 764 -136 670 -175 q 577 -214 477 -214 q 299 -214 176 -119 q 53 -24 53 152 q 53 360 212 502 q 370 644 588 644 q 746 644 843 559 q 940 474 940 337 q 940 258 912 196 q 884 133 832 80 q 780 27 726 8 q 672 -11 630 -11 q 582 -11 550 14 q 517 39 517 85 l 513 86 q 480 38 448 16 q 416 -6 364 -6 q 310 -6 276 28 q 241 61 241 118 q 241 225 338 332 q 436 439 556 439 q 586 439 608 425 q 630 411 630 381 q 629 375 629 372 l 633 372 l 658 430 l 835 430 q 817 391 790 333 q 763 275 726 192 q 688 110 680 92 q 672 73 672 56 q 672 41 679 33 q 686 25 700 25 q 728 25 759 42 q 790 58 832 104 q 874 149 896 202 q 918 255 918 328 z"},".":{"x_min":0,"x_max":272,"ha":272,"o":"m 36 89 q 36 129 65 157 q 94 185 135 185 q 176 185 206 158 q 235 130 235 89 q 235 48 206 20 q 177 -8 135 -8 q 94 -8 65 20 q 36 48 36 89 z"},"p":{"x_min":0,"x_max":619,"ha":619,"o":"m 265 69 q 269 44 288 31 q 306 18 329 18 q 360 18 376 48 q 391 78 395 114 q 399 150 400 178 q 402 206 402 239 l 402 304 q 399 333 396 364 q 392 396 376 426 q 360 455 327 455 q 307 455 288 438 q 270 420 266 395 q 264 371 263 332 q 262 294 262 256 l 262 146 q 262 100 265 69 z m -11 -231 l -11 -215 l 24 -213 q 53 -210 61 -200 q 69 -191 69 -162 l 70 -121 l 70 364 l 69 405 q 69 433 60 443 q 52 453 23 456 l -9 458 l -9 474 l 260 474 l 260 415 q 271 438 296 461 q 320 484 388 484 q 484 484 544 417 q 604 350 604 235 q 604 124 544 57 q 484 -10 388 -10 q 318 -10 295 9 q 272 28 261 49 l 262 -10 l 262 -105 l 264 -151 q 267 -185 278 -196 q 288 -208 319 -212 l 367 -215 l 367 -231 z"},"X":{"x_min":0,"x_max":764,"ha":764,"o":"m 298 306 l 103 619 q 70 671 50 688 q 30 705 -2 710 l -33 713 l -33 729 l 427 729 l 427 713 l 385 711 q 364 709 355 704 q 346 700 346 686 q 346 675 350 664 q 354 654 367 632 l 451 492 q 481 529 509 566 q 537 602 558 631 q 578 660 578 680 q 578 708 552 710 q 527 712 516 712 q 504 713 494 713 l 494 729 l 750 729 l 750 713 l 713 711 q 678 706 656 695 q 634 684 604 650 q 573 615 535 568 q 497 520 461 476 q 529 365 589 269 q 649 173 687 114 q 725 55 744 40 q 762 24 794 19 l 827 16 l 827 0 l 365 0 l 365 16 l 407 18 q 444 22 444 47 q 444 66 425 98 l 307 291 q 250 219 213 170 q 176 122 157 95 q 138 68 138 50 q 138 24 162 21 q 187 18 203 18 q 219 17 229 16 l 229 0 l -44 0 l -44 16 q -33 16 -19 16 q -5 17 15 20 q 35 22 58 34 q 82 45 118 86 q 153 126 210 196 q 266 266 298 306 z"},"*":{"x_min":0,"x_max":480,"ha":480,"o":"m 234 550 q 231 588 206 629 q 182 670 182 684 q 182 703 205 724 q 228 745 241 745 q 255 745 277 724 q 299 704 299 685 q 299 677 274 631 q 249 585 245 550 l 256 540 q 290 554 322 592 q 355 631 375 631 q 397 631 420 615 q 442 599 442 586 q 442 568 426 542 q 410 516 388 516 q 381 516 345 524 q 309 532 292 532 q 277 532 259 529 l 257 517 q 281 489 333 469 q 385 449 385 417 q 385 399 379 381 q 373 363 366 358 q 359 353 340 353 q 281 353 272 420 q 262 488 248 511 l 233 511 q 216 483 210 418 q 205 352 139 352 q 120 352 114 357 q 107 362 101 380 q 95 397 95 414 q 95 446 147 468 q 199 490 224 518 l 221 529 q 212 531 203 532 q 194 533 186 533 q 166 533 135 526 q 104 518 94 518 q 69 518 54 544 q 38 569 38 590 q 38 601 61 617 q 84 633 106 633 q 122 633 158 594 q 193 554 224 540 z"},"Y":{"x_min":0,"x_max":744,"ha":744,"o":"m 524 127 l 526 81 q 529 49 540 36 q 550 24 572 22 q 593 19 611 18 q 629 17 642 16 l 642 0 l 155 0 l 155 16 l 221 19 q 251 22 262 34 q 273 46 276 79 l 278 125 l 278 311 l 89 619 q 55 672 36 689 q 16 706 -16 710 l -44 713 l -44 729 l 423 729 l 423 713 l 371 711 q 350 709 341 705 q 332 701 332 686 q 332 675 336 664 q 340 654 356 626 q 372 599 418 526 q 463 453 505 387 q 539 446 579 514 q 619 583 638 620 q 658 656 658 679 q 658 706 614 711 l 574 713 l 574 729 l 812 729 l 812 713 l 786 711 q 752 711 729 698 q 706 685 681 646 q 656 608 612 530 q 567 453 524 376 z"},"c":{"x_min":0,"x_max":533,"ha":533,"o":"m 314 468 q 286 468 267 446 q 248 424 238 392 q 227 360 222 322 q 218 285 218 250 q 218 159 248 92 q 279 24 356 24 q 411 24 452 58 q 493 93 514 146 l 529 138 q 462 -10 289 -10 q 175 -10 95 58 q 15 125 15 236 q 15 348 94 416 q 172 484 289 484 q 333 484 370 474 q 407 465 440 448 q 472 432 502 402 q 531 371 531 330 q 531 293 508 270 q 485 248 440 248 q 401 248 370 276 q 338 303 338 338 q 338 365 349 390 q 360 415 360 432 q 360 448 348 458 q 336 468 314 468 z"},"!":{"x_min":0,"x_max":323,"ha":323,"o":"m 274 587 q 274 527 220 428 q 166 330 166 212 l 151 212 q 151 321 98 439 q 44 557 44 589 q 44 644 82 692 q 119 739 160 739 q 199 739 236 692 q 274 646 274 587 z m 257 89 q 257 49 228 22 q 200 -6 159 -6 q 119 -6 90 22 q 62 49 62 89 q 62 128 90 156 q 119 183 159 183 q 200 183 228 156 q 257 130 257 89 z"},"/":{"x_min":0,"x_max":361,"ha":361,"o":"m -32 -101 l 337 770 l 382 754 l 13 -116 z"},"[":{"x_min":0,"x_max":460,"ha":460,"o":"m 454 -125 q 454 -159 429 -180 q 425 -184 420 -180 q 414 -177 418 -171 q 428 -158 428 -141 q 428 -115 390 -106 q 351 -96 306 -96 q 242 -96 176 -103 q 110 -110 57 -125 l 57 734 q 109 720 174 712 q 239 705 306 705 q 354 705 391 714 q 428 723 428 750 q 428 767 418 780 q 414 785 419 789 q 424 793 429 793 q 454 768 454 734 q 454 675 416 648 q 377 620 325 620 q 254 620 186 654 q 119 687 82 706 l 82 -97 q 130 -72 192 -42 q 255 -11 325 -11 q 378 -11 416 -38 q 454 -65 454 -125 z"},"6":{"x_min":0,"x_max":708,"ha":708,"o":"m 433 225 q 433 250 432 274 q 430 298 427 327 q 427 378 410 411 q 393 444 357 444 q 327 444 309 420 q 291 397 288 376 q 284 356 283 317 q 282 278 282 238 l 282 225 q 282 176 289 118 q 296 60 311 34 q 326 7 360 7 q 395 7 412 35 q 429 63 429 119 q 429 135 431 175 q 433 215 433 225 z m 359 -12 q 278 -12 218 20 q 157 52 115 106 q 73 159 54 224 q 36 290 36 364 q 36 518 136 629 q 235 740 405 740 q 507 740 580 700 q 654 660 654 592 q 654 551 623 526 q 592 501 548 501 q 496 501 460 538 q 423 574 423 629 q 423 645 428 660 q 434 674 440 690 q 440 706 430 714 q 420 722 394 722 q 364 722 342 700 q 319 677 308 625 q 296 573 290 518 q 284 464 284 414 l 288 412 q 302 445 338 462 q 375 478 424 478 q 532 478 602 415 q 672 352 672 253 q 672 137 580 62 q 489 -12 359 -12 z"},"r":{"x_min":0,"x_max":512,"ha":512,"o":"m 6 0 l 6 16 l 33 17 q 62 20 68 31 q 74 42 74 79 l 75 125 l 75 364 l 74 405 q 72 429 68 441 q 64 453 32 456 l 6 458 l 6 474 l 265 474 l 265 390 q 272 408 295 444 q 318 480 400 480 q 448 480 482 446 q 515 413 515 367 q 515 321 484 290 q 452 260 406 260 q 368 260 340 286 q 313 313 313 347 q 313 372 322 393 q 332 412 342 432 q 337 439 332 439 q 306 439 286 408 q 267 377 267 350 l 267 119 l 268 69 q 268 41 275 31 q 282 21 310 18 l 340 16 l 340 0 z"},"2":{"x_min":0,"x_max":731,"ha":731,"o":"m 16 7 q 82 67 152 132 q 223 197 259 235 q 354 325 385 391 q 416 457 416 532 q 416 616 382 665 q 347 714 281 714 q 233 714 192 688 q 150 663 150 634 q 150 586 202 586 q 240 586 264 564 q 287 541 287 505 q 287 460 256 430 q 225 400 180 400 q 124 400 87 432 q 50 465 50 518 q 50 580 92 630 q 134 681 186 704 q 239 727 280 734 q 320 740 366 740 q 487 740 572 686 q 657 632 657 530 q 657 466 618 416 q 578 366 529 340 q 480 315 378 276 q 277 236 266 218 l 266 214 q 291 216 324 217 q 356 218 393 218 l 551 218 q 600 218 620 230 q 640 242 650 264 q 659 286 666 307 q 672 328 677 342 l 690 342 l 626 0 l 16 0 z"},"{":{"x_min":0,"x_max":380,"ha":380,"o":"m 105 271 l 105 264 q 164 257 208 222 q 251 186 251 106 q 251 82 241 30 q 231 -21 231 -36 q 231 -117 266 -148 q 302 -178 371 -178 l 371 -196 q 235 -196 172 -156 q 108 -115 108 -35 q 108 10 136 75 q 164 140 164 170 q 164 212 140 235 q 115 258 32 258 l 32 276 q 115 276 140 299 q 164 322 164 366 q 164 398 136 462 q 108 527 108 569 q 108 672 190 701 q 271 730 371 730 l 371 712 q 302 712 266 682 q 231 652 231 570 q 231 551 241 500 q 251 449 251 428 q 251 349 207 313 q 163 277 105 271 z"},"9":{"x_min":0,"x_max":706,"ha":706,"o":"m 275 503 q 275 486 278 448 q 280 411 280 400 q 280 349 297 316 q 314 283 350 283 q 381 283 398 306 q 415 329 418 349 q 421 369 422 418 q 424 467 424 503 q 424 522 422 552 q 420 583 416 626 q 411 668 396 694 q 381 721 347 721 q 278 721 278 609 z m 348 740 q 429 740 487 709 q 545 678 589 626 q 633 574 652 509 q 670 444 670 369 q 670 211 568 100 q 466 -12 297 -12 q 191 -12 140 18 q 89 47 71 72 q 53 96 53 130 q 53 173 84 197 q 114 221 158 221 q 209 221 247 188 q 285 155 285 108 q 285 87 279 68 q 273 49 273 39 q 273 24 283 16 q 293 8 318 8 q 348 8 368 28 q 389 47 402 97 q 415 147 421 204 q 427 261 427 320 l 423 322 q 408 289 370 268 q 331 248 283 248 q 177 248 106 310 q 36 372 36 475 q 36 590 126 665 q 217 740 348 740 z"}," ":{"x_min":0,"x_max":250,"ha":250,"o":""},"I":{"x_min":0,"x_max":536,"ha":536,"o":"m 502 0 l 31 0 l 31 16 q 38 16 50 16 q 62 17 90 20 q 117 24 128 37 q 140 50 143 81 l 145 127 l 145 602 l 143 648 q 140 680 130 692 q 119 705 88 709 l 34 713 l 34 729 l 502 729 l 502 713 l 448 710 q 417 707 406 696 q 396 684 393 650 l 391 604 l 391 125 l 393 79 q 396 46 408 34 q 419 23 450 19 l 502 16 z"},"H":{"x_min":0,"x_max":1005,"ha":1005,"o":"m 614 362 l 391 362 l 391 125 l 393 79 q 393 46 404 34 q 416 23 448 19 l 484 16 l 484 0 l 38 0 l 38 16 l 88 20 q 117 24 128 37 q 140 50 143 81 l 145 127 l 145 602 l 143 648 q 140 680 130 692 q 119 705 88 709 l 36 713 l 36 729 l 484 729 l 484 713 l 448 710 q 416 707 404 694 q 393 682 393 650 l 391 604 l 391 384 l 614 384 l 614 604 l 612 650 q 609 683 598 694 q 588 706 557 710 l 521 713 l 521 729 l 969 729 l 969 713 l 917 709 q 888 705 876 692 q 865 679 862 648 l 860 602 l 860 127 l 862 81 q 865 49 876 36 q 886 24 917 20 l 967 16 l 967 0 l 521 0 l 521 16 l 557 19 q 589 23 599 34 q 609 45 612 79 l 614 125 z"},"4":{"x_min":0,"x_max":700,"ha":700,"o":"m 325 199 l 325 392 l 326 502 q 303 476 260 426 q 218 377 160 316 q 102 254 42 200 l 166 199 z m 563 199 l 681 199 l 681 156 l 563 156 l 563 117 q 563 99 566 72 q 568 46 580 34 q 591 23 611 20 q 631 18 648 18 q 665 17 677 16 l 677 0 l 203 0 l 203 16 q 216 16 230 16 q 243 17 270 20 q 298 24 310 36 q 321 49 324 81 l 326 156 l -12 156 l -12 177 q 65 246 149 336 q 233 426 327 536 q 421 647 489 733 l 563 733 z"},"~":{"x_min":0,"x_max":833,"ha":833,"o":"m 710 443 q 710 352 667 289 q 624 226 544 226 q 514 226 490 235 q 465 244 438 263 l 359 320 q 340 335 322 343 q 304 351 284 351 q 241 351 218 312 q 195 273 195 214 l 122 214 q 122 298 166 364 q 209 430 288 430 q 315 430 342 420 q 369 410 384 400 q 400 389 433 365 q 466 341 480 332 q 493 323 512 314 q 530 305 548 305 q 591 305 614 344 q 637 382 637 443 z"},"D":{"x_min":0,"x_max":941,"ha":941,"o":"m 27 0 l 27 16 q 40 16 57 18 q 74 19 96 22 q 117 24 128 36 q 140 49 143 81 l 145 127 l 145 601 l 143 647 q 140 679 128 692 q 116 705 94 708 q 73 711 56 712 q 38 712 24 713 l 24 729 l 397 731 q 514 731 618 709 q 721 687 808 597 q 896 507 896 343 q 896 186 818 112 q 739 37 652 18 q 564 0 448 0 z m 497 700 q 483 706 454 708 q 424 710 403 710 l 391 710 l 391 19 q 398 19 404 18 q 410 18 419 18 q 457 18 488 23 q 520 28 548 48 q 575 69 600 158 q 626 246 626 339 q 626 469 594 572 q 563 674 497 700 z"},"^":{"x_min":0,"x_max":833,"ha":833,"o":"m 420 609 l 415 609 l 231 234 l 155 266 l 380 729 l 454 729 l 679 266 l 603 234 z"},"0":{"x_min":0,"x_max":758,"ha":758,"o":"m 722 364 q 722 219 626 104 q 530 -12 379 -12 q 220 -12 128 108 q 36 228 36 364 q 36 509 135 624 q 234 740 379 740 q 529 740 626 622 q 722 505 722 364 z m 473 364 q 473 447 470 506 q 467 565 458 620 q 450 676 432 698 q 415 721 379 721 q 346 721 326 698 q 307 674 300 626 q 293 578 289 506 q 285 434 285 364 q 285 287 288 224 q 292 162 300 107 q 308 52 326 30 q 343 7 379 7 q 412 7 432 30 q 451 54 458 102 q 464 149 468 224 q 473 300 473 364 z"},"F":{"x_min":0,"x_max":784,"ha":784,"o":"m 773 729 l 773 405 l 757 405 q 715 496 679 558 q 643 620 590 664 q 538 707 467 707 l 391 710 l 391 389 l 437 391 q 495 397 524 446 q 554 495 554 560 l 573 560 l 573 196 l 554 196 q 554 263 525 313 q 496 363 437 369 l 391 371 l 391 130 l 393 84 q 396 52 409 38 q 422 24 444 21 q 465 18 482 18 q 500 17 514 16 l 514 0 l 27 0 l 27 16 q 40 16 57 18 q 74 19 96 22 q 117 24 128 36 q 140 49 143 81 l 145 127 l 145 601 l 143 647 q 140 679 128 692 q 116 705 94 708 q 73 711 56 712 q 38 712 24 713 l 24 729 z"},"`":{"x_min":0,"x_max":500,"ha":500,"o":"m 323 532 l 315 521 q 281 541 236 560 q 191 579 150 596 q 108 614 94 627 q 80 640 80 672 q 80 682 82 692 q 84 701 87 705 q 90 709 106 715 q 122 721 140 721 q 169 721 228 644 q 288 566 323 532 z"},"k":{"x_min":0,"x_max":628,"ha":628,"o":"m 261 214 q 314 268 367 323 q 420 378 440 403 q 461 428 461 441 q 461 449 454 452 q 448 456 436 457 l 402 459 l 402 474 l 590 474 l 590 459 q 580 459 570 458 q 561 458 544 454 q 528 451 517 444 q 506 438 484 419 q 463 400 448 384 q 432 368 419 354 q 468 274 519 192 q 570 109 594 74 q 617 38 628 29 q 640 20 660 17 l 684 16 l 684 0 l 345 0 l 345 16 l 365 17 q 391 17 391 33 q 391 43 378 66 q 364 89 336 133 q 308 177 282 217 l 263 197 l 263 125 l 264 79 q 264 40 270 28 q 275 17 303 17 l 322 16 l 322 0 l 6 0 l 6 16 l 29 17 q 58 20 64 31 q 70 42 70 79 l 71 125 l 71 619 l 70 660 q 70 687 62 698 q 53 708 25 711 l -13 713 l -13 729 l 263 729 l 263 280 z"},"u":{"x_min":0,"x_max":652,"ha":652,"o":"m 652 0 l 390 0 l 390 64 q 367 28 334 9 q 300 -10 241 -10 q 172 -10 119 31 q 65 71 65 142 l 65 364 l 64 405 q 64 432 56 442 q 47 453 19 456 l -9 458 l -9 474 l 257 474 l 257 147 l 258 106 q 258 65 272 44 q 287 24 316 24 q 348 24 362 42 q 377 60 386 79 l 386 349 l 384 395 q 384 428 373 440 q 362 452 329 456 l 298 458 l 298 474 l 578 474 l 578 110 l 579 69 q 579 42 588 32 q 596 21 624 18 l 652 16 z"},"]":{"x_min":0,"x_max":460,"ha":460,"o":"m 404 -125 q 352 -111 287 -104 q 222 -96 155 -96 q 107 -96 70 -105 q 33 -114 33 -141 q 33 -158 43 -171 q 47 -176 42 -180 q 37 -184 32 -184 q 7 -159 7 -125 q 7 -66 46 -38 q 84 -11 136 -11 q 207 -11 274 -44 q 342 -78 379 -97 l 379 706 q 331 681 268 650 q 206 620 136 620 q 83 620 45 647 q 7 674 7 734 q 7 771 32 789 q 37 793 42 793 q 47 793 43 780 q 38 774 36 766 q 33 759 33 750 q 33 724 72 714 q 110 705 155 705 q 219 705 285 712 q 351 719 404 734 z"},"U":{"x_min":0,"x_max":853,"ha":853,"o":"m 869 713 q 856 712 840 711 q 823 710 796 706 q 768 702 754 682 q 739 662 736 630 l 734 582 l 734 285 l 732 235 q 717 97 657 42 q 597 -12 471 -12 q 305 -12 215 51 q 125 114 125 208 l 125 602 l 123 648 q 120 680 110 692 q 99 705 68 709 l 26 713 l 26 729 l 494 729 l 494 713 q 481 712 464 712 q 448 711 422 708 q 396 704 386 693 q 376 682 373 648 l 371 602 l 371 201 q 371 189 372 172 q 373 155 378 120 q 384 84 418 50 q 453 15 513 15 q 597 15 640 58 q 682 100 696 155 q 711 210 712 249 l 713 296 l 713 586 l 711 634 q 708 667 694 684 q 681 701 654 706 q 627 710 609 711 q 591 712 575 713 l 575 729 l 869 729 z"},"o":{"x_min":0,"x_max":570,"ha":570,"o":"m 555 237 q 555 131 474 60 q 394 -10 285 -10 q 170 -10 92 60 q 15 131 15 237 q 15 343 94 414 q 172 484 285 484 q 396 484 476 414 q 555 344 555 237 z m 356 238 q 356 252 354 294 q 352 336 352 344 q 352 398 336 433 q 319 468 284 468 q 252 468 235 432 q 218 395 218 344 q 218 325 216 298 q 215 270 214 238 q 214 224 216 180 q 218 137 218 130 q 218 76 234 41 q 251 6 285 6 q 318 6 335 42 q 352 78 352 130 q 352 150 353 178 q 354 205 356 238 z"},"N":{"x_min":0,"x_max":900,"ha":900,"o":"m 896 713 q 883 712 868 711 q 852 710 824 706 q 796 701 782 682 q 767 664 764 632 l 762 584 l 762 0 l 640 0 l 165 608 l 161 608 l 161 141 l 163 93 q 166 60 180 44 q 193 28 220 24 q 248 19 268 18 q 287 17 294 16 l 294 0 l 6 0 l 6 16 q 19 17 35 18 q 51 19 92 26 q 132 32 138 93 l 140 141 l 140 596 l 138 642 q 125 663 107 681 q 89 699 68 706 q 46 713 26 713 l -4 713 l -4 729 l 378 729 l 737 269 l 741 269 l 741 588 l 739 636 q 736 668 722 684 q 709 701 682 706 q 655 710 638 711 q 622 712 608 713 l 608 729 l 896 729 z"},"+":{"x_min":0,"x_max":833,"ha":833,"o":"m 457 626 l 457 369 l 709 369 l 709 288 l 457 288 l 457 30 l 376 30 l 376 288 l 124 288 l 124 369 l 376 369 l 376 626 z"},"G":{"x_min":0,"x_max":909,"ha":909,"o":"m 327 379 q 327 221 358 116 q 389 12 466 12 q 504 12 524 27 q 544 42 549 60 q 554 79 555 104 q 556 129 556 166 l 556 205 q 556 248 553 263 q 550 296 540 308 q 529 320 507 323 q 485 326 467 326 q 449 327 434 328 l 434 344 l 902 344 l 902 328 l 856 325 q 825 322 814 310 q 804 299 801 265 l 799 218 l 799 87 l 801 -3 l 786 -3 q 773 26 740 50 q 708 74 669 74 q 634 74 569 31 q 504 -12 397 -12 q 249 -12 148 95 q 47 202 47 364 q 47 534 158 637 q 269 740 441 740 q 535 740 619 698 q 703 656 713 654 q 742 654 752 676 q 762 697 771 737 l 791 737 l 791 414 l 774 414 q 744 538 674 624 q 605 710 497 710 q 411 710 369 610 q 327 511 327 379 z"},"q":{"x_min":0,"x_max":611,"ha":611,"o":"m 551 479 l 549 349 l 549 -121 l 550 -162 q 550 -189 558 -200 q 567 -210 595 -213 l 623 -215 l 623 -231 l 266 -231 l 266 -215 q 276 -215 290 -214 q 303 -214 322 -212 q 340 -210 348 -200 q 356 -191 356 -162 l 357 -121 l 357 49 q 347 29 324 10 q 300 -10 231 -10 q 136 -10 76 58 q 15 125 15 235 q 15 348 91 416 q 167 484 284 484 q 359 484 400 456 q 441 427 469 397 l 541 479 z m 357 238 l 357 327 q 355 339 355 344 q 355 401 340 434 q 324 468 287 468 q 255 468 238 432 q 221 395 221 344 q 221 325 220 298 q 218 270 217 238 q 217 224 219 180 q 221 137 221 130 q 221 81 238 48 q 255 16 289 16 q 319 16 334 34 q 349 53 351 71 q 353 89 355 156 q 357 224 357 238 z"},"d":{"x_min":0,"x_max":621,"ha":621,"o":"m 354 405 q 350 430 332 443 q 314 456 290 456 q 259 456 244 426 q 228 397 224 360 q 219 322 218 292 q 217 261 217 235 l 217 190 q 217 171 222 124 q 226 77 242 47 q 257 17 289 17 q 344 17 353 70 q 355 93 356 152 q 357 210 357 239 l 357 331 q 357 373 354 405 z m 357 477 l 357 605 l 355 651 q 355 684 345 695 q 335 706 302 710 l 255 713 l 255 729 l 549 729 l 549 110 l 550 69 q 550 42 560 32 q 569 21 596 18 l 628 16 l 628 0 l 359 0 l 359 50 q 348 30 324 10 q 299 -10 231 -10 q 135 -10 75 57 q 15 124 15 239 q 15 350 75 417 q 135 484 231 484 q 301 484 324 465 q 347 446 358 425 z"},"1":{"x_min":0,"x_max":527,"ha":527,"o":"m 391 125 l 393 79 q 396 46 408 34 q 419 23 438 20 q 457 18 470 18 q 484 17 500 16 l 500 0 l 28 0 l 28 16 q 39 16 50 16 q 62 17 90 20 q 117 24 128 36 q 140 49 143 81 l 145 127 l 145 597 l 143 643 q 140 674 128 688 q 117 703 94 706 q 72 709 49 710 q 26 712 16 713 l 16 729 l 391 729 z"},"5":{"x_min":0,"x_max":674,"ha":674,"o":"m 77 340 l 164 735 l 173 735 q 208 724 258 713 q 307 702 367 702 q 444 702 492 713 q 524 725 556 738 q 566 738 566 719 q 566 689 544 650 q 521 612 466 570 q 412 527 298 527 q 247 527 211 532 q 175 538 143 553 l 111 412 q 157 457 212 474 q 268 490 356 490 q 467 490 552 426 q 637 362 637 259 q 637 130 526 59 q 416 -12 271 -12 q 161 -12 92 40 q 22 93 22 173 q 22 215 56 246 q 90 277 135 277 q 190 277 228 248 q 266 218 266 168 q 266 118 234 86 q 202 54 202 41 q 202 23 224 14 q 245 4 267 4 q 342 4 369 65 q 396 126 396 217 q 396 314 362 388 q 329 462 253 462 q 184 462 150 428 q 116 394 106 376 q 97 358 92 338 z"}}}
